<?xml version="1.0" encoding="UTF-8"?>
<svg width="27px" height="26px" viewBox="0 0 27 26" version="1.1" xmlns="http://www.w3.org/2000/svg" xmlns:xlink="http://www.w3.org/1999/xlink">
    <!-- Generator: Sketch 51.3 (57544) - http://www.bohemiancoding.com/sketch -->
    <title>Group</title>
    <desc>Created with Sketch.</desc>
    <defs></defs>
    <g id="Page-1" stroke="none" stroke-width="1" fill="none" fill-rule="evenodd">
        <g id="Container/Wallet-dashboard/Send/modal" transform="translate(-586.000000, -464.000000)">
            <g id="Group-3" transform="translate(277.000000, 406.000000)">
                <g id="Group" transform="translate(310.439441, 59.000000)">
                    <ellipse id="Oval" stroke="#FFFFFF" cx="12.0559006" cy="12" rx="12.0559006" ry="12"></ellipse>
                    <path d="M11.0790497,6.27798165 L11.7302837,5.61192661 C11.8684243,5.47064205 12.0361661,5.4 12.2335099,5.4 C12.4308536,5.4 12.5985954,5.47064205 12.7367361,5.61192661 L18.4794352,11.4853211 C18.6175758,11.6266057 18.686646,11.798165 18.686646,12 C18.686646,12.201835 18.6175758,12.3733943 18.4794352,12.5146789 L12.7367361,18.3880734 C12.5985954,18.529358 12.4308536,18.6 12.2335099,18.6 C12.0361661,18.6 11.8684243,18.529358 11.7302837,18.3880734 L11.0790497,17.7220183 C10.921175,17.5807338 10.8471712,17.4091745 10.8570382,17.2073394 C10.8669052,17.0055044 10.9409091,16.8339451 11.0790497,16.6926606 L14.6312347,13.2110092 L6.13559228,13.2110092 C5.93824852,13.2110092 5.77050675,13.1403671 5.63236607,12.9990826 C5.49422539,12.857798 5.42515528,12.6862387 5.42515528,12.4844037 L5.42515528,11.5155963 C5.42515528,11.3137613 5.49422539,11.142202 5.63236607,11.0009174 C5.77050675,10.8596329 5.93824852,10.7889908 6.13559228,10.7889908 L14.6312347,10.7889908 L11.0790497,7.30733945 C10.9409091,7.16605489 10.8669052,6.99449557 10.8570382,6.79266055 C10.8471712,6.59082553 10.921175,6.41926621 11.0790497,6.27798165 Z" id="arrow-right-copy-2" fill="#FFFFFF" transform="translate(12.055901, 12.000000) scale(1, -1) translate(-12.055901, -12.000000) "></path>
                </g>
            </g>
        </g>
    </g>
</svg>