<?xml version="1.0" encoding="UTF-8"?>
<svg width="48px" height="33px" viewBox="0 0 48 33" version="1.1" xmlns="http://www.w3.org/2000/svg" xmlns:xlink="http://www.w3.org/1999/xlink">
    <!-- Generator: Sketch 51.3 (57544) - http://www.bohemiancoding.com/sketch -->
    <title>Group 17</title>
    <desc>Created with Sketch.</desc>
    <defs></defs>
    <g id="Page-1" stroke="none" stroke-width="1" fill="none" fill-rule="evenodd">
        <g id="Container/Stake/Manage-Copy-2" transform="translate(-474.000000, -315.000000)" stroke="#FFFFFF" stroke-width="2">
            <g id="Group-17" transform="translate(475.000000, 316.000000)">
                <path d="M46,12 C46,18.627 35.702,24 23,24 C10.298,24 0,18.627 0,12 C0,5.373 10.298,0 23,0 C35.702,0 46,5.373 46,12 Z" id="Stroke-1"></path>
                <path d="M38,12 C38.011,15.866 31.328,19 23.073,19 C14.818,19 8.118,15.866 8.107,12 C8.096,8.134 14.778,5 23.033,5 C31.288,5 37.989,8.134 38,12 Z" id="Stroke-3"></path>
                <path d="M46,12 L46,18.389 C46,25.384 35.702,31 23,31 C10.298,31 0,25.384 0,18.389 L0,12" id="Stroke-5"></path>
                <path d="M23,31 L23,19" id="Stroke-7"></path>
                <path d="M23,5 L23,0" id="Stroke-9"></path>
                <path d="M14,6 L8,3" id="Stroke-11"></path>
                <polyline id="Stroke-13" points="14.0537 18 7.9997 21 7.9997 27"></polyline>
                <path d="M8,12 L0,12" id="Stroke-15"></path>
                <path d="M32,6 L38,3" id="Stroke-17"></path>
                <polyline id="Stroke-19" points="31.9463 18 38.0003 21 38.0003 27"></polyline>
                <path d="M38,12 L46,12" id="Stroke-21"></path>
            </g>
        </g>
    </g>
</svg>