<?xml version="1.0" encoding="UTF-8"?>
<svg width="16px" height="16px" viewBox="0 0 16 16" version="1.1" xmlns="http://www.w3.org/2000/svg" xmlns:xlink="http://www.w3.org/1999/xlink">
    <!-- Generator: Sketch 51.3 (57544) - http://www.bohemiancoding.com/sketch -->
    <title>Group</title>
    <desc>Created with Sketch.</desc>
    <defs></defs>
    <g id="Page-1" stroke="none" stroke-width="1" fill="none" fill-rule="evenodd">
        <g id="Container/Wallet-dashboard/Staked" transform="translate(-180.000000, -96.000000)" fill="#363A3D">
            <g id="Group" transform="translate(180.000000, 96.000000)">
                <path d="M15.3613595,4.88406707 C14.5178039,2.91632007 13.0843399,1.48523372 11.1012549,0.638991342 C10.1100915,0.216040179 9.07168627,0 7.98684967,0 C6.90219608,0 5.87145098,0.213999843 4.88138562,0.638991342 C2.91471895,1.48298412 1.47490196,2.91315493 0.629856209,4.88406707 C0.206405229,5.871485 0,6.90596144 0,7.99121086 C0,9.07666954 0.206405229,10.1197259 0.629856209,11.1073531 C1.47490196,13.0782652 2.91490196,14.5170159 4.88138562,15.3612179 C5.87163399,15.7862094 6.90216993,16 7.98684967,16 C9.07152941,16 10.1100915,15.7839598 11.101098,15.3612179 C13.084183,14.5149494 14.5176471,13.0749169 15.3613856,11.1073531 C15.7861176,10.1165607 16,9.07666954 16,7.99121086 C16,6.90596144 15.7863007,5.87483324 15.3613595,4.88406707 Z M14.331881,11.6759142 C13.6774574,12.7988395 12.7809181,13.6896836 11.6517711,14.3483374 C10.5294623,15.0031205 9.29975837,15.3333333 7.97807936,15.3333333 C6.98449756,15.3333333 6.03641293,15.1418677 5.13382546,14.7495866 C4.23126524,14.3574964 3.45198326,13.8420329 2.80009334,13.1899757 C2.14820343,12.5377277 1.62934504,11.7504124 1.24136593,10.8458027 C0.854531051,9.94449122 0.667066385,8.98517308 0.667066385,7.99085468 C0.667066385,6.66825883 0.991839859,5.44412168 1.64258554,4.32430386 C2.29564693,3.20039723 3.19237698,2.30859909 4.31354155,1.65185338 C5.43451541,0.995134928 6.65623688,0.666666667 7.97788865,0.666666667 C9.29975837,0.666666667 10.5292443,0.997070301 11.6515804,1.65185338 C12.7807274,2.31053446 13.6753324,3.20230535 14.3316903,4.3242766 C14.9880482,5.44605705 15.3161454,6.66825883 15.3161454,7.99082742 C15.3161454,9.31345053 14.9902005,10.5459289 14.331881,11.6759142 Z" id="Shape" fill-rule="nonzero"></path>
                <path d="M7.5,3.45652174 C7.5,3.20439174 7.72385763,3 8,3 C8.27614237,3 8.5,3.20439174 8.5,3.45652174 L8.5,9.54347826 C8.5,9.79560826 8.27614237,10 8,10 C7.72385763,10 7.5,9.79560826 7.5,9.54347826 L7.5,3.45652174 Z" id="Path-2" fill-rule="nonzero"></path>
                <circle id="Oval-3" cx="8" cy="12.5" r="1"></circle>
            </g>
        </g>
    </g>
</svg>