<?xml version="1.0" encoding="UTF-8"?>
<svg width="20px" height="20px" viewBox="0 0 20 20" version="1.1" xmlns="http://www.w3.org/2000/svg" xmlns:xlink="http://www.w3.org/1999/xlink">
    <!-- Generator: Sketch 51.3 (57544) - http://www.bohemiancoding.com/sketch -->
    <title>Danger icon</title>
    <desc>Created with Sketch.</desc>
    <defs></defs>
    <g id="Symbols" stroke="none" stroke-width="1" fill="none" fill-rule="evenodd">
        <g id="Toast-/-Danger" transform="translate(-14.000000, -22.000000)" fill="#EF454B" fill-rule="nonzero">
            <path d="M24.7071068,32 L28.3535534,28.3535534 C28.5488155,28.1582912 28.5488155,27.8417088 28.3535534,27.6464466 C28.1582912,27.4511845 27.8417088,27.4511845 27.6464466,27.6464466 L24,31.2928932 L20.3535534,27.6464466 C20.1582912,27.4511845 19.8417088,27.4511845 19.6464466,27.6464466 C19.4511845,27.8417088 19.4511845,28.1582912 19.6464466,28.3535534 L23.2928932,32 L19.6464466,35.6464466 C19.4511845,35.8417088 19.4511845,36.1582912 19.6464466,36.3535534 C19.8417088,36.5488155 20.1582912,36.5488155 20.3535534,36.3535534 L24,32.7071068 L27.6464466,36.3535534 C27.8417088,36.5488155 28.1582912,36.5488155 28.3535534,36.3535534 C28.5488155,36.1582912 28.5488155,35.8417088 28.3535534,35.6464466 L24.7071068,32 Z M33.2016993,28.1050838 C33.7328758,29.3435416 34,30.6324518 34,31.9890136 C34,33.3458369 33.7326471,34.6457009 33.201732,35.8841913 C32.1470588,38.3436462 30.3552288,40.1436867 27.8763725,41.2015224 C26.6376144,41.7299498 25.3394118,42 23.9835621,42 C22.6277124,42 21.3395425,41.7327618 20.101732,41.2015224 C17.6436275,40.1462698 15.8436275,38.3478315 14.7873203,35.8841913 C14.2580065,34.6496573 14,33.3458369 14,31.9890136 C14,30.6324518 14.2580065,29.3393562 14.7873203,28.1050838 C15.8436275,25.6414437 17.6433987,23.8537302 20.101732,22.7987392 C21.3393137,22.2674998 22.6277451,22 23.9835621,22 C25.3396078,22 26.6376144,22.2700502 27.8765686,22.7987392 C30.3554248,23.8565422 32.1472549,25.6454001 33.2016993,28.1050838 Z" id="Danger-icon"></path>
        </g>
    </g>
</svg>