<?xml version="1.0" encoding="UTF-8"?>
<svg width="24px" height="24px" viewBox="0 0 24 24" version="1.1" xmlns="http://www.w3.org/2000/svg" xmlns:xlink="http://www.w3.org/1999/xlink">
    <!-- Generator: Sketch 49.2 (51160) - http://www.bohemiancoding.com/sketch -->
    <title>FAILED</title>
    <desc>Created with Sketch.</desc>
    <defs></defs>
    <g id="Verification" stroke="none" stroke-width="1" fill="none" fill-rule="evenodd">
        <g id="Verification-Stage-6---Claim-Tokens-+-State-Pallet---normal" transform="translate(-976.000000, -852.000000)">
            <g id="FAILED" transform="translate(976.000000, 852.000000)">
                <path d="M23.0420392,7.3261006 C21.7767059,4.37448011 19.6265098,2.22785058 16.6518824,0.958487012 C15.1651373,0.324060268 13.6075294,0 11.9802745,0 C10.3532941,0 8.80717647,0.320999765 7.32207843,0.958487012 C4.37207843,2.22447618 2.21235294,4.3697324 0.944784314,7.3261006 C0.309607843,8.8072275 0,10.3589422 0,11.9868163 C0,13.6150043 0.309607843,15.1795888 0.944784314,16.6610296 C2.21235294,19.6173978 4.37235294,21.7755238 7.32207843,23.0418269 C8.80745098,23.6793141 10.3532549,24 11.9802745,24 C13.6072941,24 15.1651373,23.6759397 16.6516471,23.0418269 C19.6262745,21.7724241 21.7764706,19.6123754 23.0420784,16.6610296 C23.6791765,15.1748411 24,13.6150043 24,11.9868163 C24,10.3589422 23.679451,8.81224986 23.0420392,7.3261006 Z M21.4978215,17.5138713 C20.5161861,19.1982593 19.1713771,20.5345254 17.4776566,21.5225061 C15.7941934,22.5046808 13.9496376,23 11.967119,23 C10.4767463,23 9.05461939,22.7128015 7.70073819,22.1243799 C6.34689786,21.5362446 5.17797489,20.7630494 4.20014002,19.7849636 C3.22230514,18.8065915 2.44401756,17.6256187 1.86204889,16.268704 C1.28179658,14.9167368 1.00059958,13.4777596 1.00059958,11.986282 C1.00059958,10.0023882 1.48775979,8.16618251 2.4638783,6.4864558 C3.4434704,4.80059585 4.78856547,3.46289864 6.47031232,2.47778007 C8.15177311,1.49270239 9.98435532,1 11.966833,1 C13.9496376,1 15.7938665,1.49560545 17.4773706,2.47778007 C19.1710911,3.4658017 20.5129986,4.80345802 21.4975355,6.48641491 C22.4820723,8.16908557 22.9742181,10.0023882 22.9742181,11.9862411 C22.9742181,13.9701758 22.4853007,15.8188933 21.4978215,17.5138713 Z" id="Shape" fill="#BE1017" fill-rule="nonzero"></path>
                <path d="M15.7643569,8.05465729 L7.98618232,15.8328319" id="Path-2" stroke="#BE1017" stroke-width="1.2" stroke-linecap="round"></path>
                <path d="M7.98618232,8.05465729 L15.7643569,15.8328319" id="Path-2-Copy" stroke="#BE1017" stroke-width="1.2" stroke-linecap="round"></path>
            </g>
        </g>
    </g>
</svg>