<?xml version="1.0" encoding="UTF-8"?>
<svg width="52px" height="52px" viewBox="0 0 52 52" version="1.1" xmlns="http://www.w3.org/2000/svg" xmlns:xlink="http://www.w3.org/1999/xlink">
    <!-- Generator: Sketch 50.2 (55047) - http://www.bohemiancoding.com/sketch -->
    <title>Group 5</title>
    <desc>Created with Sketch.</desc>
    <defs></defs>
    <g id="Account" stroke="none" stroke-width="1" fill="none" fill-rule="evenodd">
        <g id="Account.-Profile.-Referral-dashboard" transform="translate(-665.000000, -211.000000)">
            <g id="Group-5" transform="translate(667.000000, 213.000000)">
                <path d="M33.7499481,15.0000429 C34.3749464,15.0000429 34.9061956,15.2187926 35.3436943,15.6562914 C35.7811931,16.0937901 35.9999428,16.6250393 35.9999428,17.2500376 L35.9999428,30.7500054 C35.9999428,31.3750036 35.7811931,31.9062528 35.3436943,32.3437516 C34.9061956,32.7812503 34.3749464,33 33.7499481,33 L14.2499946,33 C13.6249964,33 13.0937472,32.7812503 12.6562484,32.3437516 C12.2187497,31.9062528 12,31.3750036 12,30.7500054 L12,17.2500376 C12,16.6250393 12.2187497,16.0937901 12.6562484,15.6562914 C13.0937472,15.2187926 13.6249964,15.0000429 14.2499946,15.0000429 L33.7499481,15.0000429 Z M33.7499481,17.2500376 L14.2499946,17.2500376 L14.2499946,19.171908 C15.3437418,20.0469061 17.4531118,21.7031519 20.5781045,24.1406461 L20.9999785,24.5156452 C21.6249768,25.0468937 22.1249759,25.4218928 22.499975,25.6406425 C23.0937238,26.0468918 23.5937221,26.2500161 23.9999714,26.2500161 C24.4062207,26.2500161 24.906219,26.0468918 25.4999678,25.6406425 C25.8749669,25.4218928 26.374966,25.0468937 26.9999642,24.5156452 L27.4218382,24.1406461 C30.546831,21.7344021 32.656201,20.0781556 33.7499481,19.171908 L33.7499481,17.2500376 Z M14.2499946,30.7500054 L33.7499481,30.7500054 L33.7499481,22.0312762 L28.3124611,26.3437659 C27.5312127,27.0000143 26.8905897,27.4687632 26.3905907,27.7500125 C25.5468427,28.2500116 24.7499696,28.5000107 23.9999714,28.5000107 C23.2499732,28.5000107 22.4374754,28.2500116 21.5624772,27.7500125 C21.0937283,27.4687632 20.4531046,27.0000143 19.6406068,26.3437659 L14.2499946,22.0312762 L14.2499946,30.7500054 Z" id="envelope-copy" fill="#42AB61"></path>
                <circle id="Oval-9" stroke="#42AB61" stroke-width="3" cx="24" cy="24" r="24"></circle>
            </g>
        </g>
    </g>
</svg>