<?xml version="1.0" encoding="UTF-8"?>
<svg width="23px" height="32px" viewBox="0 0 23 32" version="1.1" xmlns="http://www.w3.org/2000/svg" xmlns:xlink="http://www.w3.org/1999/xlink">
    <!-- Generator: Sketch 49.2 (51160) - http://www.bohemiancoding.com/sketch -->
    <title>padlock light </title>
    <desc>Created with Sketch.</desc>
    <defs></defs>
    <g id="Verification" stroke="none" stroke-width="1" fill="none" fill-rule="evenodd">
        <g id="Verification-Stage-6---Claim-Tokens-+-State-Pallet---normal" transform="translate(-977.000000, -919.000000)" fill="#9AA0A5">
            <g id="padlock-light-" transform="translate(977.000000, 919.000000)">
                <g id="padlock(1)">
                    <path d="M12,17 C10.3458374,17 9,18.4877143 9,20.3164025 C9,21.2233384 9.34097619,22.1002498 9.93625271,22.7243026 L9.93625271,25.7185944 C9.93625271,26.976556 10.8620547,28 12,28 C13.1379453,28 14.0637473,26.976556 14.0637473,25.7185944 L14.0637473,22.7243026 C14.6587876,22.1006414 15,21.2235342 15,20.3164025 C15,18.4877143 13.6542216,17 12,17 Z M13.4952208,21.8495953 C13.1249437,22.1943943 12.998346,22.2420608 12.998346,22.737648 L12.998346,26.2196575 C12.998346,26.6499962 12.4353866,27 11.9999237,27 C11.5644607,27 11.0311563,26.6499962 11.0311563,26.2196575 L11.0311563,22.737648 C11.0311563,22.2420608 10.8676708,22.1940925 10.4976227,21.8495953 C10.0927681,21.4722097 10,20.5271177 10,19.9764653 C10,18.8867014 10.8972598,18 12,18 C13.1027402,18 14,18.8867014 14,19.9764653 C13.999771,20.5271177 13.8997701,21.472436 13.4952208,21.8495953 Z" id="Shape" fill-rule="nonzero"></path>
                    <path d="M20.563011,13.1172756 L5.59922415,13.1172756 L5.59922415,7.02111035 C5.47183801,4.6387692 7.99044248,0.805091198 11.5,1.03464263 C15.0095575,1.26419406 16.713364,3.9182745 16.9120539,6.83754409 L17.0046069,9.54440442 C17.0046069,9.96909275 17.0825249,10.6078139 17.6002234,10.6078139 C18.1179218,10.6078139 18.2157508,9.96915525 18.2157508,9.54440442 L18.2157508,6.5356587 C17.9066991,3.07306698 16.2295738,0 11.5000309,0 C6.77048809,0 4.45996374,3.25950577 4.45996374,7.49054729 L4.45996374,13.1172756 L2.28348831,13.1172756 C1.02435587,13.1172756 0,14.1522151 0,15.4242176 L0,29.693058 C0,30.965123 1.02435587,32 2.28348831,32 L20.7165117,32 C21.9756441,32 23,30.965123 23,29.693058 L23,15.4242801 C23.0000619,14.1522151 21.8221434,13.1172756 20.563011,13.1172756 Z M21.1989056,31 L1.80102925,31 C1.35936943,31 1,30.6290247 1,30.1729515 L1,14.8270485 C1,14.3710425 1.35936943,14 1.80102925,14 L21.1989708,14 C21.6406306,14 22,14.3709753 22,14.8270485 L22,30.1729515 C21.9999349,30.6289575 21.6406306,31 21.1989056,31 Z" id="Shape" fill-rule="nonzero"></path>
                </g>
            </g>
        </g>
    </g>
</svg>