<?xml version="1.0" encoding="UTF-8"?>
<svg width="52px" height="52px" viewBox="0 0 52 52" version="1.1" xmlns="http://www.w3.org/2000/svg" xmlns:xlink="http://www.w3.org/1999/xlink">
    <!-- Generator: Sketch 50.2 (55047) - http://www.bohemiancoding.com/sketch -->
    <title>Group 2</title>
    <desc>Created with Sketch.</desc>
    <defs></defs>
    <g id="Account" stroke="none" stroke-width="1" fill="none" fill-rule="evenodd">
        <g id="Account.-Profile.-Referral-dashboard" transform="translate(-299.000000, -211.000000)">
            <g id="Group-2" transform="translate(301.000000, 213.000000)">
                <path d="M27.3280885,21.6719044 C28.2343361,22.6094022 28.8437096,23.6875246 29.1562091,24.9062717 C29.4687086,26.1250188 29.4687086,27.3437659 29.1562091,28.562513 C28.8437096,29.7812601 28.2343361,30.8437578 27.3280885,31.7500054 L24.1405961,34.9374978 C23.2343485,35.8437454 22.1718507,36.4531189 20.9531037,36.7656184 C19.7343566,37.0781179 18.5156095,37.0781179 17.2968624,36.7656184 C16.0781153,36.4531189 15.0078056,35.8359334 14.0859325,34.9140603 C13.1640595,33.9921873 12.5468739,32.9218776 12.2343744,31.7031305 C11.9218749,30.4843834 11.9218749,29.2656363 12.2343744,28.0468892 C12.5468739,26.8281421 13.1562475,25.7656444 14.0624951,24.8593968 L15.8437408,23.078151 C16.0624906,22.8594013 16.3203024,22.8125264 16.6171765,22.9375264 C16.9140505,23.0625263 17.0781127,23.2812753 17.1093628,23.5937748 C17.140613,24.4375228 17.2968624,25.2656461 17.5781117,26.0781439 C17.6718615,26.3593932 17.6093619,26.6093924 17.3906121,26.8281421 L16.7812386,27.4843905 C16.1249902,28.140639 15.7890532,28.9296994 15.7734285,29.8515724 C15.7578038,30.7734454 16.0781153,31.5703185 16.7343637,32.2421917 C17.3906121,32.9140649 18.1874852,33.2500018 19.124983,33.2500018 C20.0624808,33.2500018 20.8593539,32.9218776 21.5156023,32.2656291 L24.6562198,29.1250116 C25.3124683,28.4687632 25.6405925,27.6718901 25.6405925,26.7343923 C25.6405925,25.7968946 25.3124683,25.0000215 24.6562198,24.343773 C24.4999704,24.1875236 24.3280956,24.046899 24.1405961,23.921899 C23.9530965,23.7968991 23.8593467,23.6093995 23.8593467,23.3594004 C23.8280966,22.7969017 23.9999714,22.3281528 24.3749705,21.9531537 L25.406218,20.9687811 C25.531218,20.8437811 25.6796546,20.7734688 25.8515295,20.7578441 C26.0234043,20.7422193 26.1874664,20.7812815 26.3437158,20.8750313 C26.6874647,21.1250305 27.015589,21.3906551 27.3280885,21.6719044 Z M33.9374477,15.0625452 C34.8436953,16.0000429 35.4530688,17.0781653 35.7655683,18.2969124 C36.0780678,19.5156595 36.0780678,20.7344066 35.7655683,21.9531537 C35.4530688,23.1719008 34.8436953,24.2343985 33.9374477,25.1406461 L32.1562019,26.9218919 C31.9374522,27.1406416 31.6796403,27.1875165 31.3827663,27.0625165 C31.0858922,26.9375166 30.9218301,26.7187676 30.89058,26.4062681 C30.8593298,25.5625201 30.7030804,24.7343969 30.4218311,23.921899 C30.3280813,23.6406497 30.3905809,23.3906505 30.6093306,23.1719008 L31.2187042,22.5156524 C31.8749526,21.8594039 32.2108896,21.0703436 32.2265143,20.1484705 C32.242139,19.2265975 31.9218275,18.4297244 31.2655791,17.7578512 C30.6093306,17.0859781 29.8124575,16.7500411 28.8749598,16.7500411 C27.937462,16.7500411 27.1405889,17.0781653 26.4843405,17.7344138 L23.343723,20.8750313 C22.6874745,21.5312797 22.3593503,22.3281528 22.3593503,23.2656506 C22.3593503,24.2031484 22.6874745,25.0000215 23.343723,25.6562699 C23.4999723,25.8125193 23.6718472,25.9531439 23.8593467,26.0781439 C24.0468463,26.2031438 24.1405961,26.3906434 24.1405961,26.6406425 C24.1718462,27.2031412 23.9999714,27.6718901 23.6249723,28.0468892 L22.5937247,29.0312618 C22.4687248,29.1562618 22.3202881,29.2265741 22.1484133,29.2421988 C21.9765385,29.2578236 21.8124764,29.2187614 21.656227,29.1250116 C21.312478,28.8750125 20.9843538,28.6093879 20.6718543,28.3281385 C19.7656067,27.3906408 19.1562332,26.3125183 18.8437337,25.0937712 C18.5312342,23.8750241 18.5312342,22.656277 18.8437337,21.43753 C19.1562332,20.2187829 19.7656067,19.1562852 20.6718543,18.2500376 L23.8593467,15.0625452 C24.7655943,14.1562975 25.828092,13.546924 27.0468391,13.2344245 C28.2655862,12.921925 29.4843333,12.921925 30.7030804,13.2344245 C31.9218275,13.546924 32.9999499,14.1562975 33.9374477,15.0625452 Z" id="link" fill="#5FC17C"></path>
                <circle id="Oval-9" stroke="#5FC17C" stroke-width="3" cx="24" cy="24" r="24"></circle>
            </g>
        </g>
    </g>
</svg>