<?xml version="1.0" encoding="UTF-8"?>
<svg width="68px" height="68px" viewBox="0 0 68 68" version="1.1" xmlns="http://www.w3.org/2000/svg" xmlns:xlink="http://www.w3.org/1999/xlink">
    <!-- Generator: Sketch 50.2 (55047) - http://www.bohemiancoding.com/sketch -->
    <title>Group 9</title>
    <desc>Created with Sketch.</desc>
    <defs></defs>
    <g id="Account" stroke="none" stroke-width="1" fill="none" fill-rule="evenodd">
        <g id="Account.-Profile.-Referral-dashboard" transform="translate(-931.000000, -203.000000)">
            <g id="Group-9" transform="translate(933.000000, 205.000000)">
                <path d="M21.773407,29.726587 C22.5286134,30.5078351 23.0364247,31.4062705 23.2968409,32.4218931 C23.5572572,33.4375156 23.5572572,34.4531382 23.2968409,35.4687608 C23.0364247,36.4843834 22.5286134,37.3697981 21.773407,38.1250045 L19.1171634,40.7812481 C18.361957,41.5364545 17.4765423,42.0442658 16.4609197,42.304682 C15.4452971,42.5650982 14.4296746,42.5650982 13.414052,42.304682 C12.3984294,42.0442658 11.5065046,41.5299445 10.7382771,40.7617169 C9.97004957,39.9934894 9.45572828,39.1015646 9.19531203,38.0859421 C8.93489579,37.0703195 8.93489579,36.0546969 9.19531203,35.0390743 C9.45572828,34.0234517 9.96353957,33.138037 10.7187459,32.3828307 L12.2031174,30.8984592 C12.3854088,30.7161678 12.600252,30.6771054 12.8476471,30.781272 C13.0950421,30.8854386 13.2317605,31.0677294 13.2578023,31.3281457 C13.2838442,32.031269 13.414052,32.7213717 13.6484264,33.3984532 C13.7265512,33.6328277 13.6744682,33.8411603 13.4921768,34.0234517 L12.9843655,34.5703254 C12.4374918,35.1171991 12.1575444,35.7747495 12.1445238,36.542977 C12.1315031,37.3112045 12.3984294,37.9752654 12.9453031,38.5351597 C13.4921768,39.095054 14.1562377,39.3750015 14.9374858,39.3750015 C15.718734,39.3750015 16.3827949,39.1015646 16.9296686,38.5546909 L19.5468499,35.9375097 C20.0937236,35.390636 20.3671604,34.7265751 20.3671604,33.9453269 C20.3671604,33.1640788 20.0937236,32.5000179 19.5468499,31.9531442 C19.416642,31.8229364 19.273413,31.7057491 19.1171634,31.6015825 C18.9609138,31.4974159 18.8827889,31.3411663 18.8827889,31.1328336 C18.8567471,30.6640848 18.9999762,30.2734607 19.3124754,29.9609614 L20.1718484,29.1406509 C20.276015,29.0364843 20.3997122,28.9778907 20.5429412,28.9648701 C20.6861703,28.9518495 20.8228887,28.9844013 20.9530965,29.0625261 C21.239554,29.2708587 21.5129908,29.4922126 21.773407,29.726587 Z M27.2812064,24.2187876 C28.0364127,25.0000358 28.544224,25.8984711 28.8046403,26.9140937 C29.0650565,27.9297163 29.0650565,28.9453389 28.8046403,29.9609614 C28.544224,30.976584 28.0364127,31.8619988 27.2812064,32.6172051 L25.796835,34.1015766 C25.6145435,34.283868 25.3997003,34.3229304 25.1523052,34.2187638 C24.9049102,34.1145972 24.7681918,33.9323063 24.74215,33.6718901 C24.7161082,32.9687668 24.5859003,32.278664 24.3515259,31.6015825 C24.2734011,31.3672081 24.3254841,31.1588754 24.5077755,30.976584 L25.0155868,30.4297103 C25.5624605,29.8828366 25.842408,29.2252863 25.8554286,28.4570588 C25.8684492,27.6888312 25.6015229,27.0247703 25.0546492,26.464876 C24.5077755,25.9049817 23.8437146,25.6250343 23.0624665,25.6250343 C22.2812183,25.6250343 21.6171574,25.8984711 21.0702837,26.4453448 L18.4531025,29.0625261 C17.9062288,29.6093998 17.6327919,30.2734607 17.6327919,31.0547088 C17.6327919,31.835957 17.9062288,32.5000179 18.4531025,33.0468916 C18.5833103,33.1770994 18.7265393,33.2942866 18.8827889,33.3984532 C19.0390386,33.5026199 19.1171634,33.6588695 19.1171634,33.8672021 C19.1432052,34.335951 18.9999762,34.7265751 18.6874769,35.0390743 L17.828104,35.8593849 C17.7239373,35.9635515 17.6002401,36.0221451 17.4570111,36.0351657 C17.3137821,36.0481863 17.1770636,36.0156345 17.0468558,35.9375097 C16.7603984,35.729177 16.4869615,35.5078232 16.2265453,35.2734488 C15.4713389,34.4922006 14.9635276,33.5937653 14.7031114,32.5781427 C14.4426952,31.5625201 14.4426952,30.5468975 14.7031114,29.531275 C14.9635276,28.5156524 15.4713389,27.6302376 16.2265453,26.8750313 L18.8827889,24.2187876 C19.6379953,23.4635813 20.52341,22.95577 21.5390326,22.6953538 C22.5546552,22.4349375 23.5702778,22.4349375 24.5859003,22.6953538 C25.6015229,22.95577 26.4999583,23.4635813 27.2812064,24.2187876 Z" id="link" fill="#34864C"></path>
                <circle id="Oval-9" stroke="#34864C" stroke-width="3" cx="32" cy="32" r="32"></circle>
                <path d="M54.1249568,26.0000358 C54.6457887,26.0000358 55.0884964,26.1823272 55.4530786,26.5469095 C55.8176609,26.9114917 55.9999523,27.3541994 55.9999523,27.8750313 L55.9999523,39.1250045 C55.9999523,39.6458364 55.8176609,40.088544 55.4530786,40.4531263 C55.0884964,40.8177086 54.6457887,41 54.1249568,41 L37.8749955,41 C37.3541636,41 36.911456,40.8177086 36.5468737,40.4531263 C36.1822914,40.088544 36,39.6458364 36,39.1250045 L36,27.8750313 C36,27.3541994 36.1822914,26.9114917 36.5468737,26.5469095 C36.911456,26.1823272 37.3541636,26.0000358 37.8749955,26.0000358 L54.1249568,26.0000358 Z M54.1249568,27.8750313 L37.8749955,27.8750313 L37.8749955,29.47659 C38.7864515,30.2057551 40.5442598,31.5859599 43.1484205,33.6172051 L43.4999821,33.9297044 C44.020814,34.3724114 44.4374799,34.6849107 44.7499791,34.8672021 C45.2447698,35.2057432 45.6614351,35.3750134 45.9999762,35.3750134 C46.3385172,35.3750134 46.7551825,35.2057432 47.2499732,34.8672021 C47.5624724,34.6849107 47.9791383,34.3724114 48.4999702,33.9297044 L48.8515319,33.6172051 C51.4556925,31.6120017 53.2135008,30.2317963 54.1249568,29.47659 L54.1249568,27.8750313 Z M37.8749955,39.1250045 L54.1249568,39.1250045 L54.1249568,31.8593968 L49.5937176,35.4531382 C48.9426773,36.0000119 48.4088248,36.390636 47.9921589,36.6250104 C47.2890356,37.0416763 46.6249747,37.2500089 45.9999762,37.2500089 C45.3749776,37.2500089 44.6978961,37.0416763 43.968731,36.6250104 C43.5781069,36.390636 43.0442538,36.0000119 42.3671723,35.4531382 L37.8749955,31.8593968 L37.8749955,39.1250045 Z" id="envelope-copy" fill="#34864C"></path>
            </g>
        </g>
    </g>
</svg>