<?xml version="1.0" encoding="UTF-8"?>
<svg width="14px" height="13px" viewBox="0 0 14 13" version="1.1" xmlns="http://www.w3.org/2000/svg" xmlns:xlink="http://www.w3.org/1999/xlink">
    <!-- Generator: Sketch 49.2 (51160) - http://www.bohemiancoding.com/sketch -->
    <title>wallet-filled-money-tool copy</title>
    <desc>Created with Sketch.</desc>
    <defs></defs>
    <g id="Verification" stroke="none" stroke-width="1" fill="none" fill-rule="evenodd">
        <g id="Verification-Stage-2---Phone---processing-Copy" transform="translate(-779.000000, -26.000000)" fill="#FFFFFF" fill-rule="nonzero">
            <g id="Group-8-Copy-4" transform="translate(779.000000, 24.000000)">
                <g id="wallet-filled-money-tool-copy" transform="translate(0.000000, 2.000000)">
                    <path d="M3.84291378,3 L10,1.213491 L9.67393459,0.512899238 C9.46060456,0.0575145913 8.94028741,-0.130538987 8.51189296,0.0962315045 L3,3 L3.84291378,3 Z" id="Shape"></path>
                    <path d="M10.9241147,1 C10.8499325,1 10.7757167,1.0063762 10.7015177,1.01912859 L9.29512648,1.26142402 L5,2 L9.87521079,2 L12,2 L11.7369309,1.39213603 C11.6357504,1.15515409 11.2951096,1 10.9241147,1 Z" id="Shape"></path>
                    <path d="M12.2269049,3 L12.0502872,3 L11.810149,3 L11.5700109,3 L9.73721458,3 L3.00250149,3 L2.11941282,3 L1.3757592,3 L1.23787342,3 L0.776188465,3 C0.531402482,3 0.312954231,3.1110942 0.170420621,3.28610562 C0.105350929,3.36676305 0.0557740214,3.45959519 0.0278870107,3.56155836 C0.0108449486,3.62547557 0,3.69243646 0,3.76091919 L0,3.85222949 L0,4.71967737 L0,12.2390808 C0,12.6591234 0.347038356,13 0.774639187,13 L12.2253556,13 C12.652972,13 12.9999948,12.6591234 12.9999948,12.2390808 L12.9999948,10.1161163 L8.4032859,10.1161163 C7.67667434,10.1161163 7.08639928,9.53629585 7.08639928,8.82255364 L7.08639928,8.12555167 L7.08639928,7.88966672 L7.08639928,7.65378177 L7.08639928,7.13026937 C7.08639928,6.78024654 7.2289174,6.46219753 7.45977537,6.22935626 C7.66428011,6.02237102 7.93850239,5.88236189 8.2452595,5.84735961 C8.29638569,5.84128748 8.34906116,5.83822858 8.40173662,5.83822858 L12.355495,5.83822858 L12.5956332,5.83822858 L12.8357713,5.83822858 L12.9999948,5.83822858 L12.9999948,3.76091919 C13.0015441,3.3408918 12.6545058,3 12.2269049,3 Z" id="Shape"></path>
                    <path d="M13.7543331,7.18597816 C13.6789751,7.12066787 13.5900528,7.07097525 13.4905803,7.03832011 C13.4137001,7.01419789 13.3323286,7 13.2464205,7 L13.2268274,7 L13.2117558,7 L12.9781462,7 L12.1356443,7 L8.7535795,7 C8.33758855,7 8,7.31801854 8,7.70989451 L8,8.06340778 L8,8.28347508 L8,8.50354237 L8,9.29010549 C8,9.68196726 8.33758855,10 8.7535795,10 L13.2268274,10 L13.2464205,10 C13.3323286,10 13.4137151,9.98580211 13.4905803,9.9616657 C13.5900528,9.93043034 13.6789751,9.87931793 13.7543331,9.81400764 C13.905049,9.68480684 14,9.49739469 14,9.29011969 L14,7.70989451 C14,7.50259111 13.905049,7.31516477 13.7543331,7.18597816 Z M10.3270535,8.64126191 C10.3270535,8.83719279 10.1582517,8.99620916 9.95026375,8.99620916 L9.70007536,8.99620916 C9.49208742,8.99620916 9.32328561,8.83719279 9.32328561,8.64126191 L9.32328561,8.40557693 C9.32328561,8.29199381 9.37905049,8.19117459 9.46797287,8.12728409 C9.53278071,8.08043105 9.61267521,8.05062968 9.70007536,8.05062968 L9.76337604,8.05062968 L9.95026375,8.05062968 C10.1582517,8.05062968 10.3270535,8.20963185 10.3270535,8.40557693 L10.3270535,8.64126191 Z" id="Shape"></path>
                </g>
            </g>
        </g>
    </g>
</svg>