<?xml version="1.0" encoding="UTF-8"?>
<svg width="20px" height="20px" viewBox="0 0 20 20" version="1.1" xmlns="http://www.w3.org/2000/svg" xmlns:xlink="http://www.w3.org/1999/xlink">
    <!-- Generator: Sketch 51.3 (57544) - http://www.bohemiancoding.com/sketch -->
    <title>Warning icon</title>
    <desc>Created with Sketch.</desc>
    <defs></defs>
    <g id="Symbols" stroke="none" stroke-width="1" fill="none" fill-rule="evenodd">
        <g id="Toast-/-Warning" transform="translate(-14.000000, -22.000000)" fill="#FFD133" fill-rule="nonzero">
            <path d="M33.2016993,28.1050838 C33.7328758,29.3435416 34,30.6324518 34,31.9890136 C34,33.3458369 33.7326471,34.6457009 33.201732,35.8841913 C32.1470588,38.3436462 30.3552288,40.1436867 27.8763725,41.2015224 C26.6376144,41.7299498 25.3394118,42 23.9835621,42 C22.6277124,42 21.3395425,41.7327618 20.101732,41.2015224 C17.6436275,40.1462698 15.8436275,38.3478315 14.7873203,35.8841913 C14.2580065,34.6496573 14,33.3458369 14,31.9890136 C14,30.6324518 14.2580065,29.3393562 14.7873203,28.1050838 C15.8436275,25.6414437 17.6433987,23.8537302 20.101732,22.7987392 C21.3393137,22.2674998 22.6277451,22 23.9835621,22 C25.3396078,22 26.6376144,22.2700502 27.8765686,22.7987392 C30.3554248,23.8565422 32.1472549,25.6454001 33.2016993,28.1050838 Z M23.5,26.1666667 L23.5,34.5 C23.5,34.7761424 23.7238576,35 24,35 C24.2761424,35 24.5,34.7761424 24.5,34.5 L24.5,26.1666667 C24.5,25.8905243 24.2761424,25.6666667 24,25.6666667 C23.7238576,25.6666667 23.5,25.8905243 23.5,26.1666667 Z M23.9943483,37.6014781 C24.38555,37.6014781 24.7026816,37.2843465 24.7026816,36.8931448 C24.7026816,36.5019431 24.38555,36.1848114 23.9943483,36.1848114 C23.6031466,36.1848114 23.2860149,36.5019431 23.2860149,36.8931448 C23.2860149,37.2843465 23.6031466,37.6014781 23.9943483,37.6014781 Z" id="Warning-icon"></path>
        </g>
    </g>
</svg>