<?xml version="1.0" encoding="UTF-8"?>
<svg width="32px" height="41px" viewBox="0 0 32 41" version="1.1" xmlns="http://www.w3.org/2000/svg" xmlns:xlink="http://www.w3.org/1999/xlink">
    <!-- Generator: Sketch 51.3 (57544) - http://www.bohemiancoding.com/sketch -->
    <title>Fill 1</title>
    <desc>Created with Sketch.</desc>
    <defs></defs>
    <g id="Archive" stroke="none" stroke-width="1" fill="none" fill-rule="evenodd">
        <path d="M25.9564797,32.0990865 C25.9570983,32.0551623 25.9574076,32.011238 25.9574076,31.9676209 L25.9574076,27.4123993 L28.945867,24.9597058 L28.945867,27.0146237 C28.945867,28.7531641 28.1747814,30.3878836 26.8305623,31.4988908 C26.5620897,31.7218908 26.2682544,31.9236967 25.9564797,32.0990865 M13.3249655,34.3183364 L21.4642024,35.7936385 C21.4747186,35.7954814 21.4855442,35.7973244 21.496679,35.7985531 C21.2424341,36.1173879 21.0271611,36.3465312 20.8202392,36.5182351 C19.4797318,37.6289351 17.7272364,38.0872217 16.0121663,37.7751445 L7.84107147,36.295235 C5.05180152,35.7884167 3.02712187,33.3458596 3.02712187,30.4874043 L3.02712187,14.8132032 C3.02712187,13.0820347 3.79635167,11.4513083 5.1371684,10.3387654 C5.40873405,10.1142295 5.70473442,9.91211648 6.017437,9.73764811 C6.0161998,9.79048008 6.0158905,9.84300489 6.0158905,9.89614402 L6.0158905,25.615498 C6.0158905,29.8893587 9.08971671,33.5495084 13.3249655,34.3183364 M18.6613233,7.53007039 L10.4911563,6.04954659 C10.4769285,6.04708929 10.46301,6.04463199 10.4487822,6.04217468 L10.4410496,6.04094603 C10.6600342,5.78507958 10.9012885,5.54764287 11.1580077,5.33477918 C12.4873803,4.23390837 14.290601,3.76302808 15.9821642,4.0751053 L24.1217105,5.5507145 C26.9168571,6.05783998 28.945867,8.47367395 28.945867,11.2946554 L28.945867,14.2919482 L25.9574076,16.7443345 L25.9574076,16.2169363 C25.9574076,11.9498333 22.8891488,8.29644112 18.6613233,7.53007039 M23.7044644,21.4936829 C24.1817147,21.7169901 24.7313413,21.6484929 25.1380712,21.3149143 L31.4889339,16.0971429 C31.7966877,15.8437337 31.9729888,15.4708383 31.9729888,15.0739842 L31.9729888,11.2946554 C31.9729888,7.02018045 28.8991626,3.36033789 24.6639139,2.59243135 L16.5246769,1.11712931 C13.9194406,0.643177393 11.2572931,1.33859355 9.22086003,3.02614496 C8.23450143,3.84196887 7.40433947,4.94836861 6.81976194,6.22555077 C5.49502883,6.54069961 4.24329058,7.16454688 3.19971143,8.02982397 C1.16637137,9.71399659 0,12.1863485 0,14.8132032 L0,30.5635806 C0,34.8306837 3.06949601,38.484383 7.29886808,39.2507537 L15.4662513,40.7309703 C15.822256,40.796396 16.1770234,40.8049965 16.4770447,40.8049965 C16.5775673,40.8049965 16.6774713,40.804075 16.776138,40.8025392 L17.0733756,40.8006963 C19.2353846,40.8006963 21.2016065,40.1181809 22.7604799,38.8268693 C23.7820988,37.9812506 24.6128793,36.8966594 25.1634338,35.6901247 C27.3257521,35.1679482 29.2378464,33.7967743 30.5489703,31.8287834 C31.4805828,30.430272 31.9729888,28.7460994 31.9729888,26.958413 L31.9729888,21.7618359 C31.9729888,21.1754624 31.6408003,20.6554361 31.1063295,20.4050986 C30.57124,20.1550682 29.956351,20.2318589 29.5007517,20.6056758 L23.4369196,25.5804815 C23.1338054,25.8292832 22.9302858,26.2891056 22.9302858,26.7249694 L22.9302858,31.9676209 C22.9302858,32.2588111 22.906779,32.5576803 22.8603839,32.8559352 C22.809968,32.857471 22.7592427,32.8586997 22.7085175,32.8605426 L22.6955269,32.8608498 C22.4564377,32.8685289 22.2306485,32.8755936 22.0091895,32.8350481 L13.8696433,31.3597461 C11.0729501,30.853235 9.04301237,28.4377081 9.04301237,25.615498 L9.04301237,9.89614402 C9.04301237,9.59911777 9.06744709,9.29471962 9.11538864,8.99124296 C9.4014914,9.00230081 9.68202676,9.03270991 9.9501901,9.08154877 L18.1163362,10.4855891 C20.9056061,10.9924074 22.9302858,13.4027124 22.9302858,16.2169363 L22.9302858,20.2822335 C22.9302858,20.806253 23.2269047,21.2706828 23.7044644,21.4936829" id="Fill-1" fill="#FFFFFF"></path>
    </g>
</svg>